HIERARCHY
ROOT Hips
{
	OFFSET -0.179506 -22.333345 2.821913
	CHANNELS 6 Xposition Yposition Zposition Zrotation Yrotation Xrotation 
	JOINT LeftUpLeg
	{
		OFFSET 6.951974 -9.140623 -0.681533
		CHANNELS 3 Zrotation Yrotation Xrotation
		JOINT LeftLeg
		{
			OFFSET 3.427654 -37.519855 -0.449580
			CHANNELS 3 Zrotation Yrotation Xrotation
			JOINT LeftFoot
			{
				OFFSET -1.359570 -39.796059 -4.369333
				CHANNELS 3 Zrotation Yrotation Xrotation
				JOINT LeftToe
				{
					OFFSET 2.635814 -5.579078 11.928840
					CHANNELS 3 Zrotation Yrotation Xrotation
					End Site
					{
						OFFSET 0.000000 0.000000 0.000000
					}
				}
			}
		}
	}
	JOINT RightUpLeg
	{
		OFFSET -6.767048 -9.052170 -0.431982
		CHANNELS 3 Zrotation Yrotation Xrotation
		JOINT RightLeg
		{
			OFFSET -3.829005 -38.256897 -0.885003
			CHANNELS 3 Zrotation Yrotation Xrotation
			JOINT RightFoot
			{
				OFFSET 1.577377 -39.841461 -4.231180
				CHANNELS 3 Zrotation Yrotation Xrotation
				JOINT RightToe
				{
					OFFSET -2.537174 -4.814398 12.334795
					CHANNELS 3 Zrotation Yrotation Xrotation
					End Site
					{
						OFFSET 0.000000 0.000000 0.000000
					}
				}
			}
		}
	}
	JOINT Spine
	{
		OFFSET -0.253288 10.896323 -2.669631
		CHANNELS 3 Zrotation Yrotation Xrotation
		JOINT Spine1
		{
			OFFSET 0.548704 13.518043 0.109247
			CHANNELS 3 Zrotation Yrotation Xrotation
			JOINT Spine2
			{
				OFFSET 0.145701 5.292222 2.542457
				CHANNELS 3 Zrotation Yrotation Xrotation
				JOINT Neck
				{
					OFFSET -0.277840 21.387037 -4.285703
					CHANNELS 3 Zrotation Yrotation Xrotation
					JOINT Head
					{
						OFFSET 0.515184 6.496960 5.134897
						CHANNELS 3 Zrotation Yrotation Xrotation
						End Site
						{
							OFFSET 0.000000 0.000000 0.000000
						}
					}
				}
				JOINT LeftShoulder
				{
					OFFSET 7.884473 12.174932 -3.408961
					CHANNELS 3 Zrotation Yrotation Xrotation
					JOINT LeftArm
					{
						OFFSET 9.097692 3.046888 -0.886815
						CHANNELS 3 Zrotation Yrotation Xrotation
						JOINT LeftForeArm
						{
							OFFSET 25.961220 -1.277207 -2.745643
							CHANNELS 3 Zrotation Yrotation Xrotation
							JOINT LeftHand
							{
								OFFSET 24.923361 0.898606 -0.117091
								CHANNELS 3 Zrotation Yrotation Xrotation
								End Site
								{
									OFFSET 0.000000 0.000000 0.000000
								}
							}
						}
					}
				}
				JOINT RightShoulder
				{
					OFFSET -8.175920 11.883285 -3.861528
					CHANNELS 3 Zrotation Yrotation Xrotation
					JOINT RightArm
					{
						OFFSET -9.601238 3.255117 -0.914307
						CHANNELS 3 Zrotation Yrotation Xrotation
						JOINT RightForeArm
						{
							OFFSET -25.374195 -1.332924 -2.140099
							CHANNELS 3 Zrotation Yrotation Xrotation
							JOINT RightHand
							{
								OFFSET -25.529810 0.777228 -0.555919
								CHANNELS 3 Zrotation Yrotation Xrotation
								End Site
								{
									OFFSET 0.000000 0.000000 0.000000
								}
							}
						}
					}
				}
			}
		}
	}
}
MOTION
Frames: 16
Frame Time: 0.033333
-16.627920 -3.665160 93.684227 -126.545205 3.626193 82.947079 14.155509 6.739497 2.426287 0.235080 7.203562 25.723409 -2.001219 0.467946 -24.055134 nan nan nan -12.612651 -11.333398 -4.272088 0.359671 -13.989536 11.617462 8.810243 2.201669 -5.335898 nan nan nan -4.609418 4.052918 8.849654 8.024993 -6.018681 7.807878 3.861551 1.205610 -2.991102 2.120647 -14.112163 8.388385 8.239432 -27.444238 11.186884 -5.597667 -15.211730 -0.287000 -79.387804 -40.036340 32.666452 171.210145 -79.873458 -141.839264 17.158425 -32.091782 -41.054715 16.937984 7.277966 2.563992 56.144450 11.511980 -2.394762 -74.896415 48.012735 -58.426252 5.750950 21.302713 -24.038902 
-16.633181 -3.648334 93.698357 -126.542217 3.679943 82.933612 14.234521 6.713182 2.447746 0.151229 7.144178 25.707702 -2.071973 0.615077 -24.050516 nan nan nan -12.561629 -11.326599 -4.205992 0.404644 -13.847587 11.597599 8.886971 2.174979 -5.364603 nan nan nan -4.479175 3.905617 8.967531 7.934306 -5.880117 7.297581 3.853872 1.164882 -2.548923 2.075696 -14.122945 8.142616 8.014714 -27.347349 11.533659 -5.671470 -15.073229 -0.277274 -79.312159 -40.058444 32.690045 171.716372 -79.850315 -142.353954 17.416056 -32.075018 -41.372255 16.972486 7.183512 2.665986 56.157215 11.663202 -2.302708 -74.740825 48.050419 -58.275690 5.353409 21.414866 -24.159181 
-16.638964 -3.649916 93.685478 -126.528519 3.713158 82.880679 14.275704 6.617407 2.540201 0.117602 7.174483 25.615937 -2.142771 0.693234 -23.967361 nan nan nan -12.548828 -11.314412 -4.102390 0.442900 -13.856155 11.535043 8.944779 2.168825 -5.369315 nan nan nan -4.500783 4.031329 8.805726 7.974158 -5.811555 7.589573 3.949968 1.013045 -2.489857 2.129674 -14.052350 7.844315 7.918988 -27.393364 11.475711 -5.556917 -15.181758 -0.297315 -79.449635 -40.138643 32.758374 171.045363 -79.760858 -141.653395 17.522741 -32.118353 -41.565857 16.816049 7.147376 2.566697 56.322153 11.773067 -2.213424 -74.918765 48.011742 -58.315138 5.356300 21.458929 -24.215247 
-16.644405 -3.645486 93.680763 -126.558595 3.694860 82.994021 14.248909 6.662980 2.482858 0.145562 7.242569 25.518433 -2.144808 0.670253 -23.952219 nan nan nan -12.513784 -11.338978 -4.266693 0.400312 -14.052245 11.523520 9.001083 2.200918 -5.349178 nan nan nan -4.494117 3.849419 8.895081 7.910748 -5.806625 7.115420 3.948554 1.105147 -2.333796 1.994798 -14.008725 7.964688 7.895240 -27.235878 11.494907 -5.548127 -15.000870 -0.237795 -79.525757 -39.993698 32.734846 171.547422 -79.692314 -142.024962 17.711908 -32.196519 -41.757569 16.830251 7.075341 2.708159 56.481882 11.836263 -2.206637 -74.950981 48.191691 -58.250806 5.358219 21.498980 -24.268981 
-16.629522 -3.641934 93.672897 -126.598042 3.687408 82.920280 14.270477 6.648847 2.656558 0.126034 7.283252 25.332070 -2.160640 0.598838 -23.989022 nan nan nan -12.485399 -11.232705 -4.237137 0.328099 -14.168154 11.528969 9.025685 2.128947 -5.354139 nan nan nan -4.515186 3.751537 8.877202 7.887310 -5.857736 7.414071 3.926044 1.199622 -2.420539 2.136148 -13.837710 7.611755 7.689563 -27.262459 11.637509 -5.472106 -14.828944 -0.442504 -79.643268 -39.908912 32.800717 171.725306 -79.679955 -142.110485 17.951853 -32.316900 -41.784893 16.821568 7.094887 2.657309 56.604504 11.934278 -2.037489 -74.992447 48.200249 -58.258315 5.231239 21.499074 -24.266991 
-16.614861 -3.618806 93.670319 -126.632725 3.675319 82.975416 14.272972 6.739629 2.663621 0.109244 7.282219 25.235445 -2.103962 0.636852 -23.986973 nan nan nan -12.440844 -11.201654 -4.317901 0.286087 -14.144965 11.537216 8.990227 2.055011 -5.354316 nan nan nan -4.493104 3.497316 8.850270 7.803731 -5.968587 7.275236 3.802595 1.442822 -2.297422 2.136448 -13.751166 7.505571 7.678870 -27.259984 11.653365 -5.381925 -14.628867 -0.512786 -79.641666 -39.771566 32.796647 172.488089 -79.612209 -142.729425 18.424242 -32.239925 -41.891804 16.928390 7.139723 2.741541 56.774153 12.041173 -1.921609 -75.056445 48.169992 -58.165104 5.236918 21.486018 -24.195126 
-16.583120 -3.598746 93.676559 -126.648583 3.706784 83.022818 14.318666 6.810525 2.631249 0.110330 7.283930 25.206152 -2.103807 0.661837 -23.958282 nan nan nan -12.385259 -11.213793 -4.369314 0.313647 -14.118852 11.516388 8.958377 2.065467 -5.366184 nan nan nan -4.554026 3.607944 8.759152 7.874823 -5.909436 7.267437 3.857338 1.345367 -2.267531 2.155665 -13.808072 7.426877 7.631595 -27.313611 11.627507 -5.436390 -14.681933 -0.472154 -79.629808 -39.795751 32.855843 172.524533 -79.591774 -142.743080 18.482790 -32.151744 -41.806565 16.983398 7.064266 2.634622 56.733011 11.974214 -1.861900 -75.039700 48.218490 -58.164764 5.274923 21.457837 -24.187537 
-16.539644 -3.575485 93.660255 -126.709887 3.658332 83.180251 14.282364 6.907187 2.490448 0.114788 7.350032 25.162683 -1.980024 0.640353 -23.911827 nan nan nan -12.411095 -11.276039 -4.623217 0.350757 -14.070935 11.617688 8.867783 2.201091 -5.338876 nan nan nan -4.570124 3.485263 8.658940 7.779038 -5.955084 7.123064 3.752814 1.488990 -2.204090 2.168486 -13.738384 7.457711 7.737015 -27.300438 11.577266 -5.336438 -14.503467 -0.523950 -79.554852 -39.751299 32.779740 173.182893 -79.531020 -143.410047 18.343835 -32.185880 -41.849560 17.074941 7.009750 2.691121 56.912577 12.069677 -1.787617 -75.036535 48.252283 -58.092902 5.327412 21.451944 -23.986066 
-16.525688 -3.568752 93.657692 -126.680088 3.698129 83.222550 14.341537 6.929711 2.429892 0.096744 7.358849 25.162093 -1.937546 0.622106 -23.956167 nan nan nan -12.367622 -11.341941 -4.661563 0.388079 -13.987309 11.637439 8.851384 2.155148 -5.315232 nan nan nan -4.611791 3.688058 8.518269 7.864725 -5.860452 7.195291 3.846550 1.274136 -2.158188 2.253970 -13.806675 7.275106 7.718638 -27.341883 11.505459 -5.382334 -14.578681 -0.484851 -79.548009 -39.880491 32.765655 173.163047 -79.548609 -143.404738 18.225093 -32.269838 -41.780188 17.044001 6.921279 2.574849 56.873539 11.999605 -1.763943 -75.016756 48.284510 -58.131806 5.434862 21.470095 -24.090565 
-16.537788 -3.557322 93.660454 -126.625825 3.735568 83.190986 14.388619 6.955420 2.474504 0.105115 7.293575 25.107913 -1.939520 0.646350 -23.980370 nan nan nan -12.298546 -11.350105 -4.565119 0.350247 -13.818404 11.603916 8.778374 2.038182 -5.376476 nan nan nan -4.643688 3.761489 8.484010 7.925149 -5.828911 7.224035 3.909701 1.162951 -2.120382 2.282128 -13.794929 7.169853 7.676986 -27.394692 11.575277 -5.439351 -14.653076 -0.426542 -79.483331 -39.938457 32.689626 173.184159 -79.494814 -143.329492 18.039073 -32.345746 -41.706752 17.029685 6.913412 2.535643 56.863469 11.918601 -1.774137 -74.984794 48.323605 -58.173356 5.472036 21.530714 -24.416985 
-16.537243 -3.558578 93.654243 -126.611777 3.732640 83.167955 14.386697 6.930880 2.511989 0.112857 7.298018 25.062892 -1.913925 0.676180 -23.949612 nan nan nan -12.257127 -11.318843 -4.516040 0.300732 -13.718258 11.565296 8.687224 1.911386 -5.469380 nan nan nan -4.677431 3.757282 8.483977 7.938495 -5.820848 7.282796 3.915224 1.145542 -2.142572 2.300699 -13.704864 7.061226 7.615184 -27.473526 11.759055 -5.440377 -14.633847 -0.443092 -79.465764 -39.948613 32.680883 173.178284 -79.449071 -143.249273 17.778868 -32.383143 -41.655052 17.049187 6.913907 2.525179 56.906383 11.927839 -1.745203 -74.908027 48.314831 -58.080878 5.703364 21.604537 -24.526918 
-16.521254 -3.559137 93.634148 -126.610049 3.727671 83.186872 14.390437 6.853183 2.513639 0.090621 7.387627 25.008095 -1.795118 0.705647 -23.913648 nan nan nan -12.224651 -11.283879 -4.532374 0.295438 -13.649483 11.529880 8.565975 1.742315 -5.488745 nan nan nan -4.737186 3.736834 8.443516 7.965694 -5.799994 7.401930 3.908674 1.132175 -2.203146 2.330489 -13.620321 6.830013 7.482173 -27.559098 12.033138 -5.387151 -14.511546 -0.545171 -79.559685 -39.975965 32.788657 173.179860 -79.466281 -143.190939 17.543100 -32.418965 -41.656911 16.995262 6.883034 2.457604 57.097721 11.995231 -1.547495 -74.876121 48.198159 -57.921051 6.318752 21.592800 -24.550187 
-16.505928 -3.551386 93.633194 -126.620766 3.720031 83.180006 14.384906 6.838832 2.563118 0.125394 7.503309 24.927975 -1.788884 0.681498 -23.872559 nan nan nan -12.226277 -11.316669 -4.533124 0.321007 -13.711875 11.496109 8.568820 1.739409 -5.460102 nan nan nan -4.772939 3.767409 8.427328 7.961881 -5.780365 7.511300 3.898984 1.115343 -2.293488 2.374230 -13.577137 6.735460 7.448979 -27.617292 12.130064 -5.399839 -14.465664 -0.582399 -79.563956 -39.996299 32.842524 173.141755 -79.510672 -143.136170 17.426435 -32.502926 -41.551167 17.048580 6.852249 2.417556 57.167215 11.978272 -1.440703 -74.816204 48.165464 -57.869508 6.638883 21.659110 -24.682126 
-16.491835 -3.537254 93.638992 -126.640671 3.701685 83.132438 14.378831 6.888978 2.658277 0.184280 7.600495 24.861003 -1.819383 0.634505 -23.874825 nan nan nan -12.258386 -11.412581 -4.487399 0.361511 -13.804536 11.434343 8.650699 1.828579 -5.386598 nan nan nan -4.790166 3.860226 8.422251 7.931856 -5.760452 7.646197 3.887602 1.077862 -2.383300 2.429659 -13.542799 6.705541 7.508036 -27.656049 12.166150 -5.402606 -14.491256 -0.607197 -79.533925 -40.016077 32.874808 173.098855 -79.551346 -143.152845 17.462862 -32.534383 -41.383485 17.110054 6.840081 2.393948 57.157292 11.897292 -1.410206 -74.752778 48.202047 -57.968499 6.540199 21.702060 -24.790989 
-16.476994 -3.524862 93.640831 -126.674145 3.669116 83.124431 14.348001 6.878392 2.723459 0.195097 7.687189 24.771159 -1.803595 0.624609 -23.872249 nan nan nan -12.295954 -11.432338 -4.500668 0.411865 -13.874612 11.408576 8.718024 1.880117 -5.363402 nan nan nan -4.839439 3.923744 8.345481 7.916994 -5.752746 7.763400 3.867074 1.053160 -2.420816 2.497825 -13.496867 6.721210 7.512199 -27.691973 12.173490 -5.387868 -14.468885 -0.616460 -79.586139 -40.029304 32.939423 172.887357 -79.582036 -142.978563 17.386841 -32.595956 -41.408251 17.149875 6.830982 2.423932 57.192446 11.907225 -1.349560 -74.704754 48.174893 -57.888168 6.505227 21.642364 -24.707183 
-16.468479 -3.518533 93.633163 -126.755036 3.638052 83.194364 14.314681 6.876051 2.729368 0.182115 7.775181 24.642912 -1.764713 0.655332 -23.854606 nan nan nan -12.290428 -11.404059 -4.638396 0.382949 -13.887391 11.459454 8.803118 1.947794 -5.326656 nan nan nan -4.860643 3.863840 8.239374 7.863812 -5.774124 7.681410 3.791678 1.175957 -2.354624 2.536372 -13.429198 6.829127 7.529235 -27.735214 12.208914 -5.341337 -14.417506 -0.574839 -79.652519 -40.015582 32.974435 172.768915 -79.611761 -142.815893 17.287520 -32.590413 -41.416690 17.224479 6.806671 2.554018 57.238846 11.967307 -1.355896 -74.551164 48.254134 -57.640829 6.368561 21.646862 -24.692953 
